<svg width="38" height="30" viewBox="0 0 38 30" fill="none" xmlns="http://www.w3.org/2000/svg">
<path d="M30.8275 7.49414L28.0012 4.70508C27.3758 4.09326 26.5307 3.74999 25.65 3.75H12.1837C11.305 3.75 10.4559 4.0957 9.8325 4.70508L7.00625 7.49414H0V22.4766H3.8C4.845 22.4766 5.68813 21.6445 5.69406 20.6191H6.23438L11.2575 25.0957C13.0922 26.5664 15.6394 26.6016 17.5275 25.3184C18.2697 25.9512 19.0712 26.25 19.9678 26.25C21.0484 26.25 22.0637 25.8164 22.8653 24.8438C24.1775 25.3535 25.7272 24.9961 26.6653 23.8594L28.2209 21.9668C28.5534 21.5625 28.7612 21.0996 28.8681 20.6191H32.3059C32.3119 21.6445 33.1609 22.4766 34.2 22.4766H38V7.49414H30.8275ZM2.85 20.6016C2.3275 20.6016 1.9 20.1797 1.9 19.6641C1.9 19.1484 2.3275 18.7266 2.85 18.7266C3.3725 18.7266 3.8 19.1484 3.8 19.6641C3.8 20.1855 3.3725 20.6016 2.85 20.6016ZM26.0063 20.1973L24.4566 22.084C24.2903 22.2832 23.9934 22.3184 23.7856 22.1543L22.3666 21.0176L20.5853 23.1562C20.2291 23.584 19.6947 23.4375 19.5166 23.2969L17.3316 21.4512L16.4053 22.5762C15.58 23.5781 14.0778 23.7305 13.1219 22.9629L7.34469 17.8066H5.7V10.3008H8.18781L11.8513 6.69141C11.97 6.64453 12.0709 6.60352 12.1897 6.55664H15.5562L13.2584 8.63672C11.5128 10.2129 11.4119 12.873 12.9972 14.5723C13.8759 15.5215 16.6309 16.9863 19.0238 14.8301L19.5106 14.3906L25.935 19.5352C26.1369 19.6992 26.1666 19.998 26.0063 20.1973ZM32.3 17.8066H28.1912C28.0547 17.6426 27.9003 17.4902 27.7341 17.3555L21.6362 12.4688L22.3784 11.8008C22.7644 11.4492 22.7941 10.8574 22.4378 10.4766L21.7906 9.79102C21.4344 9.41016 20.8347 9.38672 20.4487 9.73242L17.1713 12.6973C16.6072 13.207 15.6453 13.248 15.1169 12.6973C14.5647 12.1172 14.6122 11.2266 15.1881 10.7109L19.0831 7.18945C19.5225 6.79102 20.0925 6.57422 20.6862 6.57422L25.6559 6.5625C25.7806 6.5625 25.8994 6.60938 25.9825 6.69727L29.6459 10.3066H32.3V17.8066ZM35.15 20.6016C34.6275 20.6016 34.2 20.1797 34.2 19.6641C34.2 19.1484 34.6275 18.7266 35.15 18.7266C35.6725 18.7266 36.1 19.1484 36.1 19.6641C36.1 20.1855 35.6725 20.6016 35.15 20.6016Z" fill="black"/>
</svg>
