<svg width="23" height="23" viewBox="0 0 23 23" fill="none" xmlns="http://www.w3.org/2000/svg">
<g clip-path="url(#clip0_21_53)">
<path d="M5.30977 8.97988L2.83412 11.7291L1.84045 10.7359C1.41931 10.3147 0.737171 10.3147 0.315804 10.7359C-0.105563 11.157 -0.105339 11.8392 0.315804 12.2605L2.11268 14.0574C2.31483 14.2627 2.5902 14.375 2.83457 14.375C2.8444 14.375 2.85283 14.375 2.86266 14.3743C3.15888 14.3666 3.43811 14.2381 3.63622 14.0184L6.87059 10.4247C7.26927 9.98179 7.23275 9.30028 6.79059 8.90137C6.38789 8.50371 5.70957 8.53964 5.30977 8.97988ZM5.30977 1.79417L2.83412 4.5416L1.84045 3.54837C1.41931 3.12723 0.737171 3.12723 0.315804 3.54837C-0.105563 3.96952 -0.105339 4.65166 0.315804 5.07302L2.11268 6.8699C2.31483 7.07519 2.5902 7.18749 2.83457 7.18749C2.8444 7.18749 2.85283 7.1875 2.86266 7.18679C3.15888 7.17907 3.43811 7.05064 3.63622 6.83092L6.87059 3.23717C7.26927 2.79429 7.23275 2.11278 6.79059 1.71387C6.38789 1.31666 5.70957 1.35169 5.30977 1.79417ZM2.15625 16.4908C0.965374 16.4908 3.04988e-06 17.4562 3.04988e-06 18.6471C3.04988e-06 19.8379 0.965374 20.8033 2.15625 20.8033C3.34713 20.8033 4.3125 19.8379 4.3125 18.6471C4.3125 17.4971 3.34713 16.4908 2.15625 16.4908ZM11.5 5.74999H21.5625C22.3563 5.74999 23 5.10626 23 4.31249C23 3.51873 22.3563 2.87499 21.5625 2.87499H11.5C10.7049 2.87499 10.0625 3.51873 10.0625 4.31249C10.0625 5.10626 10.7049 5.74999 11.5 5.74999ZM21.5625 10.0625H11.5C10.7049 10.0625 10.0625 10.7049 10.0625 11.5C10.0625 12.2951 10.7062 12.9375 11.5 12.9375H21.5625C22.3563 12.9375 23 12.2938 23 11.5C23 10.7062 22.3576 10.0625 21.5625 10.0625ZM21.5625 17.25H8.625C7.83123 17.25 7.1875 17.8937 7.1875 18.6875C7.1875 19.4813 7.83123 20.125 8.625 20.125H21.5625C22.3563 20.125 23 19.4813 23 18.6875C23 17.8937 22.3576 17.25 21.5625 17.25Z" fill="black"/>
</g>
<defs>
<clipPath id="clip0_21_53">
<rect width="23" height="23" fill="white"/>
</clipPath>
</defs>
</svg>
